# xmcd CD database file
#
# Track frame offsets:
#	150
#	7682
#	32362
#	44692
#	66860
#	81510
#	111312
#	156685
#	172147
#	180042
#	201227
#	231182
#	252880
#	290692
#	315545
#
# Disc length: 4313 seconds
#
# Revision: 2
# Processed by: cddbd v1.4PL0 Copyright (c) Steve Scherf et al.
# Submitted via: CDex 1.51
#
DISCID=cf10d70f
DTITLE=Various Artist - Blue Break Beats Volume Four
DYEAR=1998
DGENRE=Jazz
TTITLE0=Gene Harris - Prelude
TTITLE1=David Axelrod - Holy Thursday
TTITLE2=Gene Harris and The Three Sounds - Sitting Duck
TTITLE3=Buddy Rich - The Beat Goes On
TTITLE4=Bob Dorough - Three Is The Magic Number
TTITLE5=Banbara - Shack Up
TTITLE6=The Sons - Boomp Bommp Chomp
TTITLE7=Monk Higgins - Little Green Apples
TTITLE8=Herbie Hancock - Bring Down The Birds
TTITLE9=Ike and Tina Turner - Whole Lotta Love
TTITLE10=The Three Sounds - Repeat After Me
TTITLE11=Eddie Henderson - Inside You
TTITLE12=Marlena Shaw - Woman Of The Ghetto
TTITLE13=Paul Nero - This Is Soul
TTITLE14=unknown - Data
EXTD=YEAR: 1998
EXTT0=
EXTT1=
EXTT2=
EXTT3=
EXTT4=
EXTT5=
EXTT6=
EXTT7=
EXTT8=
EXTT9=
EXTT10=
EXTT11=
EXTT12=
EXTT13=
EXTT14=
PLAYORDER=
